<?xml version="1.0" standalone="no"?><!DOCTYPE svg PUBLIC "-//W3C//DTD SVG 1.1//EN" "http://www.w3.org/Graphics/SVG/1.1/DTD/svg11.dtd"><svg t="1638780507701" class="icon" viewBox="0 0 1024 1024" version="1.1" xmlns="http://www.w3.org/2000/svg" p-id="159704" xmlns:xlink="http://www.w3.org/1999/xlink" width="200" height="200"><defs><style type="text/css"></style></defs><path d="M914.432 448.7168l-326.9632-333.7216c-21.8112-22.272-50.9952-34.5088-82.176-34.5088h-0.4096c-31.3344 0.1024-60.5696 12.544-82.3296 35.072L99.9424 449.0752c-22.9888 23.7568-29.2352 57.3952-16.3328 87.808 11.8784 27.9552 36.9152 46.1824 66.56 48.9472v235.6224c0 64.8192 52.736 117.5552 117.5552 117.5552 1.024 0 2.0992-0.0512 3.1232-0.1536 20.224-1.0752 295.168-0.512 476.0576 0.1536h0.1024c64.8192 0 117.5552-52.736 117.5552-117.5552v-235.6224c29.7472-2.7648 54.8352-21.0944 66.6624-49.152 12.8512-30.5664 6.4-64.256-16.7936-87.9616z m-270.2848 336.7424c0 17.152-13.9264 31.0272-31.0272 31.0272s-31.0272-13.9264-31.0272-31.0272v-187.392c0-10.752-8.7552-19.456-19.456-19.456H452.1984c-10.752 0-19.456 8.7552-19.456 19.456v186.624c0 17.152-13.9264 31.0272-31.0272 31.0272-17.152 0-31.0272-13.9264-31.0272-31.0272v-186.624c0-45.0048 36.608-81.5616 81.5616-81.5616h110.4384c45.0048 0 81.5616 36.608 81.5616 81.5616v187.392z" fill="#505587" p-id="159705"></path></svg>