<?xml version="1.0" standalone="no"?><!DOCTYPE svg PUBLIC "-//W3C//DTD SVG 1.1//EN" "http://www.w3.org/Graphics/SVG/1.1/DTD/svg11.dtd"><svg t="1638782071841" class="icon" viewBox="0 0 1024 1024" version="1.1" xmlns="http://www.w3.org/2000/svg" p-id="184149" xmlns:xlink="http://www.w3.org/1999/xlink" width="200" height="200"><defs><style type="text/css"></style></defs><path d="M178.6368 519.7312h277.9648v-217.088H178.6368l-91.4944 108.544zM760.9856 666.0608h-184.7808v-153.4976h184.7808l60.8256 76.7488z" fill="#58afbe" p-id="184150"></path><path d="M959.9488 268.8l-89.344-101.9392a30.70976 30.70976 0 0 0-23.0912-10.496h-240.5888V92.16c0-16.9472-13.7728-30.72-30.72-30.72H456.6016c-16.9472 0-30.72 13.7728-30.72 30.72v179.7632H178.6368c-9.0624 0-17.664 3.9936-23.5008 10.9056l-91.4944 108.544a30.73024 30.73024 0 0 0 0 39.5776l91.4944 108.544a30.76096 30.76096 0 0 0 23.5008 10.9056h247.2448v237.056H302.6944c-16.9472 0-30.72 13.7728-30.72 30.72V931.84c0 16.9472 13.7728 30.72 30.72 30.72h427.4688c16.9472 0 30.72-13.7728 30.72-30.72v-113.6128c0-16.9472-13.7728-30.72-30.72-30.72h-123.1872v-90.7264h154.0608c9.3696 0 18.2272-4.3008 24.064-11.6224l60.8256-76.7488a30.69952 30.69952 0 0 0 0-38.144l-60.8256-76.7488a30.64832 30.64832 0 0 0-24.064-11.6224h-154.0608V421.6832h240.5888c8.8576 0 17.2544-3.84 23.0912-10.496L960 309.248a30.6432 30.6432 0 0 0-0.0512-40.448zM192.9216 489.0112l-65.5872-77.824 65.5872-77.824h232.96v155.648h-232.96zM699.4432 901.12H333.4144v-52.1728h365.9776V901.12z m-212.1216-113.6128V122.88h58.1632v664.6272H487.3216z m258.816-244.224l36.5056 46.0288-36.5056 46.0288h-139.2128v-92.0576h139.2128z m87.4496-183.04h-226.6624V217.8048h226.6624L896 289.024l-62.4128 71.2192z" fill="#58afbe" p-id="184151"></path></svg>